<?xml version="1.0" encoding="utf-8"?>
<!-- Generator: Adobe Illustrator 21.0.0, SVG Export Plug-In . SVG Version: 6.00 Build 0)  -->
<svg version="1.1" id="Calque_1" xmlns="http://www.w3.org/2000/svg" xmlns:xlink="http://www.w3.org/1999/xlink" x="0px" y="0px"
	 viewBox="0 0 576 512" style="enable-background:new 0 0 576 512;" xml:space="preserve">
<style type="text/css">
	.st0{display:none;}
</style>
<path d="M375.5,248v-89c0-31.4,25.1-57.4,56.5-57.7c31.7-0.3,57.6,25.4,57.6,57v63.4c0,10.5,8.5,19,19,19H534c10.5,0,19-8.5,19-19
	v-63.4c0-66.5-54.3-120.6-120.8-120.4c-66.5,0.2-120,55.1-120,121.6V248"/>
<path d="M399.5,248h19c21,0,38,17,38,38v152.1c0,21-17,38-38,38H139.7c-21,0-38-17-38-38V286c0-21,17-38,38-38h177.4h19H399.5z"/>
<path class="st0" d="M445.1,207.5V98c0-42,33.7-77,75.7-77.4c42.5-0.4,77.2,34.1,77.2,76.5v17c0,14.1,11.4,25.5,25.5,25.5h34
	c14.1,0,25.5-11.4,25.5-25.5v-17c0-89.2-72.7-161.7-161.9-161.4C431.8-64,360.1,9.5,360.1,98.7v108.8H445.1z"/>
<path class="st0" d="M-299.5,168c0-38.5,30.4-70.1,68.5-71.9c41.2-2,75.5,31.7,75.5,73v70.9c0,0,0,0.1,0.1,0.1h79.9
	c0,0,0.1,0,0.1-0.1v-70.4c0-85.3-69.5-155-154.7-153.6c-82.6,1.4-149.3,69.1-149.3,152v71.9c0,0,0,0.1,0.1,0.1h79.9
	c0,0,0.1,0,0.1-0.1V168z"/>
</svg>
